<?xml version="1.0" encoding="UTF-8"?>
<svg xmlns="http://www.w3.org/2000/svg" xmlns:xlink="http://www.w3.org/1999/xlink" width="150px" height="150px" viewBox="0 0 150 150" version="1.1">
<g id="surface1">
<path style=" stroke:none;fill-rule:nonzero;fill:rgb(64.313728%,83.92157%,36.862746%);fill-opacity:1;" d="M 96.957031 28.457031 C 96.960938 19.855469 91.824219 12.101562 83.941406 8.8125 C 76.054688 5.523438 66.980469 7.351562 60.957031 13.4375 L 22.90625 51.796875 C 31.347656 49.214844 40.511719 51.523438 46.753906 57.800781 L 61.652344 72.8125 L 90.792969 43.460938 C 94.753906 39.488281 96.972656 34.085938 96.957031 28.457031 Z M 96.957031 28.457031 "/>
<path style=" stroke:none;fill-rule:nonzero;fill:rgb(95.294118%,91.764706%,36.470589%);fill-opacity:1;" d="M 136.761719 89.824219 C 144.996094 81.527344 144.996094 68.078125 136.761719 59.785156 L 98.730469 21.476562 C 101.265625 29.96875 98.972656 39.175781 92.757812 45.453125 L 77.839844 60.484375 L 106.953125 89.824219 C 115.195312 98.09375 128.523438 98.09375 136.761719 89.824219 Z M 136.761719 89.824219 "/>
<path style=" stroke:none;fill-rule:nonzero;fill:rgb(100%,50.196081%,54.509807%);fill-opacity:1;" d="M 14.972656 89.824219 L 53.007812 128.140625 C 50.457031 119.648438 52.75 110.429688 58.980469 104.15625 L 73.894531 89.125 L 44.78125 59.792969 C 36.550781 51.5 23.210938 51.5 14.980469 59.792969 C 6.75 68.085938 6.75 81.535156 14.980469 89.828125 Z M 14.972656 89.824219 "/>
<path style=" stroke:none;fill-rule:nonzero;fill:rgb(35.686275%,76.078433%,90.588236%);fill-opacity:1;" d="M 54.773438 121.152344 C 54.765625 129.753906 59.90625 137.507812 67.789062 140.796875 C 75.671875 144.085938 84.746094 142.257812 90.773438 136.171875 L 128.890625 97.753906 C 126.625 98.449219 124.265625 98.804688 121.898438 98.808594 C 115.566406 98.816406 109.496094 96.289062 105.019531 91.777344 L 90.117188 76.761719 L 60.984375 106.113281 C 57 110.085938 54.761719 115.503906 54.773438 121.152344 Z M 54.773438 121.152344 "/>
</g>
</svg>
