<?xml version="1.0" encoding="UTF-8"?>
<svg xmlns="http://www.w3.org/2000/svg" xmlns:xlink="http://www.w3.org/1999/xlink" width="26px" height="26px" viewBox="0 0 26 26" version="1.1">
<g id="surface1">
<path style=" stroke:none;fill-rule:nonzero;fill:rgb(64.313728%,83.92157%,36.862746%);fill-opacity:1;" d="M 16.730469 4.535156 C 16.730469 3.003906 15.792969 1.625 14.355469 1.039062 C 12.917969 0.453125 11.265625 0.777344 10.164062 1.863281 L 3.226562 8.6875 C 4.765625 8.226562 6.4375 8.640625 7.574219 9.757812 L 10.292969 12.425781 L 15.605469 7.203125 C 16.328125 6.496094 16.734375 5.535156 16.730469 4.535156 Z M 16.730469 4.535156 "/>
<path style=" stroke:none;fill-rule:nonzero;fill:rgb(95.294118%,91.764706%,36.470589%);fill-opacity:1;" d="M 23.988281 15.453125 C 25.488281 13.976562 25.488281 11.585938 23.988281 10.109375 L 17.054688 3.292969 C 17.511719 4.800781 17.097656 6.441406 15.964844 7.558594 L 13.246094 10.234375 L 18.550781 15.453125 C 20.054688 16.921875 22.484375 16.921875 23.988281 15.453125 Z M 23.988281 15.453125 "/>
<path style=" stroke:none;fill-rule:nonzero;fill:rgb(100%,50.196081%,54.509807%);fill-opacity:1;" d="M 1.78125 15.453125 L 8.714844 22.265625 C 8.25 20.757812 8.667969 19.121094 9.804688 18.003906 L 12.523438 15.328125 L 7.214844 10.109375 C 5.714844 8.632812 3.28125 8.632812 1.78125 10.109375 C 0.28125 11.585938 0.28125 13.976562 1.78125 15.453125 Z M 1.78125 15.453125 "/>
<path style=" stroke:none;fill-rule:nonzero;fill:rgb(35.686275%,76.078433%,90.588236%);fill-opacity:1;" d="M 9.035156 21.027344 C 9.035156 22.554688 9.972656 23.9375 11.410156 24.519531 C 12.847656 25.105469 14.5 24.78125 15.601562 23.699219 L 22.554688 16.863281 C 22.136719 16.984375 21.710938 17.050781 21.277344 17.050781 C 20.121094 17.054688 19.015625 16.601562 18.199219 15.800781 L 15.480469 13.125 L 10.167969 18.351562 C 9.441406 19.054688 9.035156 20.019531 9.035156 21.027344 Z M 9.035156 21.027344 "/>
</g>
</svg>
