<?xml version="1.0" encoding="UTF-8"?>
<svg xmlns="http://www.w3.org/2000/svg" xmlns:xlink="http://www.w3.org/1999/xlink" width="300px" height="69px" viewBox="0 0 300 69" version="1.1">
<g id="surface1">
<path style=" stroke:none;fill-rule:nonzero;fill:rgb(19.607843%,17.647059%,15.686275%);fill-opacity:1;" d="M 68.550781 20.382812 C 68.554688 17.742188 65.890625 15.363281 61.804688 14.355469 C 57.71875 13.34375 53.015625 13.90625 49.890625 15.773438 L 30.171875 27.546875 C 34.546875 26.753906 39.296875 27.464844 42.53125 29.390625 L 50.253906 33.996094 L 65.355469 24.988281 C 67.40625 23.769531 68.558594 22.113281 68.550781 20.382812 Z M 68.550781 20.382812 "/>
<path style=" stroke:none;fill-rule:nonzero;fill:rgb(19.607843%,17.647059%,15.686275%);fill-opacity:1;" d="M 89.179688 39.21875 C 93.445312 36.671875 93.445312 32.546875 89.179688 30 L 69.46875 18.242188 C 70.785156 20.847656 69.59375 23.671875 66.375 25.601562 L 58.644531 30.214844 L 73.730469 39.21875 C 78 41.757812 84.910156 41.757812 89.179688 39.21875 Z M 89.179688 39.21875 "/>
<path style=" stroke:none;fill-rule:nonzero;fill:rgb(19.607843%,17.647059%,15.686275%);fill-opacity:1;" d="M 26.058594 39.21875 L 45.773438 50.980469 C 44.449219 48.371094 45.640625 45.542969 48.867188 43.617188 L 56.597656 39.003906 L 41.507812 30 C 37.246094 27.457031 30.328125 27.457031 26.0625 30 C 21.796875 32.546875 21.796875 36.675781 26.0625 39.222656 Z M 26.058594 39.21875 "/>
<path style=" stroke:none;fill-rule:nonzero;fill:rgb(19.607843%,17.647059%,15.686275%);fill-opacity:1;" d="M 46.6875 48.835938 C 46.683594 51.472656 49.347656 53.855469 53.433594 54.863281 C 57.519531 55.875 62.222656 55.3125 65.34375 53.445312 L 85.101562 41.652344 C 83.925781 41.867188 82.703125 41.976562 81.476562 41.976562 C 78.195312 41.980469 75.046875 41.203125 72.726562 39.820312 L 65.003906 35.210938 L 49.90625 44.21875 C 47.839844 45.4375 46.679688 47.101562 46.6875 48.835938 Z M 46.6875 48.835938 "/>
<path style=" stroke:none;fill-rule:nonzero;fill:rgb(19.607843%,17.647059%,15.686275%);fill-opacity:1;" d="M 114.660156 27.824219 C 116.113281 27.808594 117.558594 27.972656 118.902344 28.304688 C 120.121094 28.613281 121.203125 29.082031 122.070312 29.679688 C 122.960938 30.304688 123.628906 31.035156 124.035156 31.820312 C 124.941406 33.648438 124.941406 35.597656 124.035156 37.425781 C 123.625 38.210938 122.957031 38.933594 122.070312 39.5625 C 121.203125 40.15625 120.121094 40.621094 118.902344 40.925781 C 116.167969 41.5625 113.128906 41.5625 110.394531 40.925781 C 109.171875 40.621094 108.085938 40.15625 107.214844 39.5625 C 106.316406 38.9375 105.644531 38.210938 105.234375 37.425781 C 104.332031 35.597656 104.332031 33.648438 105.234375 31.820312 C 105.640625 31.035156 106.316406 30.304688 107.214844 29.679688 C 108.085938 29.082031 109.171875 28.613281 110.394531 28.304688 C 111.746094 27.972656 113.195312 27.808594 114.660156 27.824219 Z M 114.660156 40.410156 C 115.84375 40.425781 117.023438 40.289062 118.113281 40.003906 C 119.082031 39.742188 119.929688 39.34375 120.582031 38.84375 C 121.265625 38.300781 121.761719 37.679688 122.046875 37.019531 C 122.695312 35.449219 122.695312 33.808594 122.046875 32.238281 C 121.761719 31.574219 121.265625 30.953125 120.582031 30.402344 C 119.929688 29.898438 119.082031 29.496094 118.113281 29.230469 C 115.902344 28.679688 113.414062 28.679688 111.203125 29.230469 C 110.230469 29.496094 109.386719 29.898438 108.734375 30.402344 C 108.042969 30.949219 107.539062 31.574219 107.246094 32.238281 C 106.578125 33.808594 106.578125 35.453125 107.246094 37.019531 C 107.539062 37.679688 108.042969 38.300781 108.734375 38.84375 C 109.386719 39.34375 110.234375 39.742188 111.203125 40.003906 C 112.289062 40.289062 113.46875 40.425781 114.660156 40.410156 Z M 114.660156 40.410156 "/>
<path style=" stroke:none;fill-rule:nonzero;fill:rgb(19.607843%,17.647059%,15.686275%);fill-opacity:1;" d="M 130.414062 41.230469 L 130.414062 28.035156 L 131.566406 28.035156 C 131.730469 28.023438 131.894531 28.054688 132.019531 28.117188 C 132.148438 28.179688 132.226562 28.269531 132.238281 28.367188 L 132.4375 30.351562 C 133.40625 29.609375 134.601562 28.988281 135.960938 28.515625 C 137.324219 28.046875 138.871094 27.804688 140.441406 27.816406 C 141.539062 27.804688 142.628906 27.921875 143.652344 28.164062 C 144.542969 28.378906 145.332031 28.71875 145.953125 29.15625 C 146.585938 29.617188 147.050781 30.152344 147.328125 30.722656 C 147.660156 31.394531 147.820312 32.09375 147.804688 32.796875 L 147.804688 41.230469 L 145.683594 41.230469 L 145.683594 32.796875 C 145.683594 31.558594 145.207031 30.589844 144.257812 29.882812 C 143.3125 29.179688 141.859375 28.824219 139.902344 28.824219 C 138.484375 28.820312 137.089844 29.054688 135.878906 29.492188 C 134.578125 29.972656 133.445312 30.59375 132.542969 31.328125 L 132.542969 41.226562 Z M 130.414062 41.230469 "/>
<path style=" stroke:none;fill-rule:nonzero;fill:rgb(19.607843%,17.647059%,15.686275%);fill-opacity:1;" d="M 162.925781 27.824219 C 164.109375 27.816406 165.285156 27.945312 166.382812 28.207031 C 167.425781 28.457031 168.367188 28.839844 169.136719 29.328125 C 169.949219 29.847656 170.574219 30.464844 170.96875 31.136719 C 171.425781 31.929688 171.648438 32.765625 171.621094 33.605469 C 171.644531 33.742188 171.597656 33.882812 171.480469 34.003906 C 171.363281 34.078125 171.195312 34.117188 171.027344 34.109375 L 155.058594 34.109375 L 155.058594 34.359375 C 155.03125 35.246094 155.226562 36.128906 155.636719 36.980469 C 155.96875 37.667969 156.527344 38.308594 157.28125 38.867188 C 157.972656 39.367188 158.859375 39.761719 159.859375 40.011719 C 160.929688 40.277344 162.078125 40.410156 163.238281 40.398438 C 164.210938 40.410156 165.1875 40.335938 166.125 40.179688 C 166.839844 40.058594 167.527344 39.894531 168.183594 39.6875 C 168.640625 39.542969 169.082031 39.378906 169.503906 39.199219 C 169.703125 39.089844 169.949219 39.011719 170.21875 38.980469 C 170.394531 38.976562 170.558594 39.027344 170.660156 39.113281 L 171.238281 39.539062 C 170.835938 39.828125 170.359375 40.078125 169.824219 40.28125 C 169.210938 40.519531 168.558594 40.71875 167.871094 40.871094 C 167.121094 41.039062 166.347656 41.171875 165.558594 41.261719 C 164.746094 41.359375 163.914062 41.410156 163.082031 41.410156 C 161.664062 41.417969 160.257812 41.257812 158.949219 40.9375 C 157.71875 40.632812 156.625 40.160156 155.742188 39.566406 C 154.8125 38.917969 154.109375 38.167969 153.675781 37.355469 C 153.164062 36.390625 152.917969 35.378906 152.945312 34.363281 C 152.929688 33.476562 153.15625 32.589844 153.621094 31.746094 C 154.035156 30.984375 154.703125 30.28125 155.578125 29.675781 C 156.441406 29.089844 157.511719 28.625 158.710938 28.3125 C 160.042969 27.976562 161.480469 27.808594 162.925781 27.824219 Z M 162.957031 28.765625 C 161.914062 28.753906 160.875 28.863281 159.894531 29.082031 C 159.015625 29.285156 158.21875 29.597656 157.554688 29.996094 C 156.878906 30.414062 156.335938 30.898438 155.957031 31.429688 C 155.535156 32.027344 155.261719 32.65625 155.148438 33.300781 L 169.703125 33.300781 C 169.71875 32.652344 169.554688 32.011719 169.21875 31.398438 C 168.925781 30.871094 168.457031 30.386719 167.839844 29.972656 C 167.25 29.582031 166.523438 29.277344 165.710938 29.074219 C 164.835938 28.863281 163.902344 28.757812 162.957031 28.765625 Z M 162.957031 28.765625 "/>
<path style=" stroke:none;fill-rule:nonzero;fill:rgb(19.607843%,17.647059%,15.686275%);fill-opacity:1;" d="M 192.804688 30.5 C 192.667969 30.609375 192.507812 30.707031 192.328125 30.792969 C 192.128906 30.871094 191.890625 30.910156 191.648438 30.898438 C 191.355469 30.898438 191.070312 30.84375 190.828125 30.746094 C 190.5625 30.644531 190.242188 30.527344 189.871094 30.402344 C 189.453125 30.261719 189.007812 30.144531 188.550781 30.054688 C 187.933594 29.945312 187.292969 29.894531 186.652344 29.902344 C 185.777344 29.890625 184.910156 30 184.117188 30.214844 C 183.390625 30.417969 182.761719 30.726562 182.285156 31.109375 C 181.777344 31.535156 181.410156 32.015625 181.207031 32.523438 C 180.957031 33.136719 180.832031 33.769531 180.839844 34.402344 C 180.828125 35.054688 180.957031 35.703125 181.230469 36.335938 C 181.449219 36.851562 181.828125 37.335938 182.351562 37.761719 C 182.816406 38.136719 183.429688 38.433594 184.128906 38.636719 C 184.867188 38.839844 185.671875 38.945312 186.488281 38.933594 C 187.207031 38.949219 187.925781 38.882812 188.609375 38.742188 C 189.089844 38.632812 189.550781 38.492188 189.976562 38.320312 C 190.34375 38.164062 190.667969 38.023438 190.941406 37.894531 C 191.203125 37.769531 191.53125 37.699219 191.863281 37.699219 C 192.265625 37.6875 192.648438 37.804688 192.863281 38.007812 L 194.445312 39.199219 C 193.867188 39.609375 193.203125 39.96875 192.464844 40.269531 C 191.78125 40.546875 191.042969 40.78125 190.269531 40.957031 C 189.503906 41.128906 188.710938 41.25 187.902344 41.320312 C 187.101562 41.390625 186.292969 41.429688 185.480469 41.429688 C 184.113281 41.433594 182.757812 41.273438 181.5 40.957031 C 180.261719 40.644531 179.148438 40.179688 178.242188 39.585938 C 177.277344 38.941406 176.53125 38.191406 176.046875 37.375 C 175.488281 36.421875 175.214844 35.414062 175.242188 34.402344 C 175.230469 33.457031 175.480469 32.519531 175.976562 31.621094 C 176.421875 30.804688 177.144531 30.050781 178.097656 29.40625 C 179.058594 28.773438 180.238281 28.269531 181.5625 27.941406 C 183.070312 27.570312 184.6875 27.390625 186.316406 27.410156 C 187.851562 27.390625 189.375 27.558594 190.796875 27.902344 C 192.089844 28.234375 193.261719 28.710938 194.253906 29.308594 Z M 192.804688 30.5 "/>
<path style=" stroke:none;fill-rule:nonzero;fill:rgb(19.607843%,17.647059%,15.686275%);fill-opacity:1;" d="M 202.929688 21.519531 L 202.929688 41.230469 L 197.441406 41.230469 L 197.441406 21.519531 Z M 202.929688 21.519531 "/>
<path style=" stroke:none;fill-rule:nonzero;fill:rgb(19.607843%,17.647059%,15.686275%);fill-opacity:1;" d="M 214.90625 23.65625 C 214.910156 23.933594 214.8125 24.203125 214.617188 24.453125 C 214.433594 24.699219 214.171875 24.921875 213.851562 25.109375 C 213.523438 25.292969 213.144531 25.441406 212.730469 25.546875 C 212.292969 25.65625 211.824219 25.714844 211.351562 25.710938 C 210.886719 25.714844 210.425781 25.660156 210 25.546875 C 209.179688 25.335938 208.527344 24.945312 208.171875 24.457031 C 207.984375 24.203125 207.890625 23.933594 207.894531 23.660156 C 207.890625 23.375 207.984375 23.097656 208.171875 22.835938 C 208.34375 22.59375 208.589844 22.371094 208.902344 22.183594 C 209.21875 21.996094 209.59375 21.847656 210 21.746094 C 210.421875 21.636719 210.878906 21.578125 211.34375 21.578125 C 211.816406 21.578125 212.285156 21.636719 212.722656 21.746094 C 213.136719 21.851562 213.515625 22 213.84375 22.183594 C 214.167969 22.371094 214.425781 22.59375 214.609375 22.835938 C 214.804688 23.09375 214.90625 23.375 214.90625 23.65625 Z M 214.082031 27.625 L 214.082031 41.230469 L 208.59375 41.230469 L 208.59375 27.625 Z M 214.082031 27.625 "/>
<path style=" stroke:none;fill-rule:nonzero;fill:rgb(19.607843%,17.647059%,15.686275%);fill-opacity:1;" d="M 235.996094 30.5 C 235.859375 30.609375 235.699219 30.707031 235.519531 30.792969 C 235.316406 30.871094 235.082031 30.910156 234.839844 30.898438 C 234.546875 30.898438 234.261719 30.84375 234.019531 30.746094 C 233.75 30.644531 233.433594 30.527344 233.0625 30.402344 C 232.644531 30.261719 232.199219 30.144531 231.738281 30.054688 C 231.125 29.945312 230.484375 29.894531 229.839844 29.902344 C 228.96875 29.894531 228.101562 30 227.308594 30.214844 C 226.582031 30.417969 225.953125 30.726562 225.480469 31.109375 C 224.972656 31.535156 224.605469 32.015625 224.402344 32.523438 C 224.152344 33.136719 224.027344 33.769531 224.039062 34.402344 C 224.023438 35.054688 224.152344 35.703125 224.425781 36.335938 C 224.644531 36.851562 225.023438 37.335938 225.546875 37.761719 C 226.011719 38.136719 226.625 38.4375 227.328125 38.636719 C 228.0625 38.839844 228.871094 38.945312 229.683594 38.933594 C 230.402344 38.949219 231.125 38.882812 231.804688 38.742188 C 232.285156 38.632812 232.742188 38.492188 233.167969 38.320312 C 233.535156 38.164062 233.863281 38.023438 234.140625 37.894531 C 234.402344 37.769531 234.726562 37.699219 235.0625 37.699219 C 235.460938 37.6875 235.84375 37.804688 236.058594 38.007812 L 237.636719 39.199219 C 237.058594 39.609375 236.394531 39.96875 235.660156 40.269531 C 234.972656 40.550781 234.226562 40.78125 233.449219 40.957031 C 232.683594 41.128906 231.890625 41.253906 231.082031 41.320312 C 230.277344 41.394531 229.46875 41.429688 228.660156 41.429688 C 227.292969 41.433594 225.941406 41.273438 224.683594 40.957031 C 223.441406 40.644531 222.332031 40.179688 221.425781 39.585938 C 220.457031 38.941406 219.710938 38.191406 219.230469 37.375 C 218.664062 36.421875 218.390625 35.414062 218.417969 34.398438 C 218.40625 33.457031 218.65625 32.515625 219.148438 31.621094 C 219.597656 30.804688 220.320312 30.050781 221.273438 29.40625 C 222.234375 28.769531 223.417969 28.269531 224.742188 27.9375 C 226.25 27.570312 227.867188 27.390625 229.496094 27.40625 C 231.03125 27.386719 232.554688 27.554688 233.972656 27.898438 C 235.265625 28.230469 236.441406 28.710938 237.433594 29.304688 Z M 235.996094 30.5 "/>
<path style=" stroke:none;fill-rule:nonzero;fill:rgb(19.607843%,17.647059%,15.686275%);fill-opacity:1;" d="M 246.421875 21.519531 L 246.421875 32.808594 L 247.441406 32.808594 C 247.738281 32.820312 248.035156 32.785156 248.308594 32.714844 C 248.566406 32.628906 248.792969 32.511719 248.972656 32.371094 L 254.632812 28.195312 C 254.863281 28.03125 255.132812 27.886719 255.433594 27.773438 C 255.773438 27.667969 256.152344 27.613281 256.53125 27.625 L 261.585938 27.625 L 254.488281 32.675781 C 254.246094 32.855469 253.984375 33.027344 253.707031 33.1875 C 253.445312 33.339844 253.152344 33.476562 252.839844 33.589844 C 253.148438 33.722656 253.425781 33.878906 253.664062 34.058594 C 253.902344 34.234375 254.136719 34.421875 254.375 34.625 L 261.976562 41.230469 L 257.019531 41.230469 C 256.640625 41.242188 256.265625 41.195312 255.921875 41.097656 C 255.59375 40.992188 255.316406 40.839844 255.121094 40.648438 L 249.328125 35.488281 C 249.171875 35.324219 248.941406 35.183594 248.664062 35.089844 C 248.34375 35.019531 248.003906 34.988281 247.664062 34.996094 L 246.421875 34.996094 L 246.421875 41.230469 L 240.933594 41.230469 L 240.933594 21.519531 Z M 246.421875 21.519531 "/>
<path style=" stroke:none;fill-rule:nonzero;fill:rgb(19.607843%,17.647059%,15.686275%);fill-opacity:1;" d="M 269.632812 21.398438 L 269.632812 22.054688 L 267.949219 22.054688 L 267.949219 24.976562 L 266.554688 24.976562 L 266.554688 22.054688 L 264.878906 22.054688 L 264.878906 21.398438 Z M 269.632812 21.398438 "/>
<path style=" stroke:none;fill-rule:nonzero;fill:rgb(19.607843%,17.647059%,15.686275%);fill-opacity:1;" d="M 273.433594 23.535156 C 273.488281 23.601562 273.535156 23.671875 273.582031 23.742188 C 273.625 23.667969 273.675781 23.601562 273.726562 23.523438 C 273.777344 23.445312 273.835938 23.386719 273.890625 23.324219 L 275.429688 21.515625 C 275.449219 21.488281 275.480469 21.464844 275.511719 21.441406 C 275.539062 21.425781 275.574219 21.414062 275.609375 21.40625 C 275.648438 21.394531 275.6875 21.390625 275.730469 21.390625 L 276.953125 21.390625 L 276.953125 24.96875 L 275.726562 24.96875 L 275.726562 22.925781 C 275.726562 22.828125 275.726562 22.71875 275.75 22.605469 L 274.160156 24.441406 C 274.117188 24.496094 274.046875 24.542969 273.960938 24.574219 C 273.875 24.601562 273.777344 24.617188 273.675781 24.617188 L 273.488281 24.617188 C 273.386719 24.617188 273.289062 24.601562 273.203125 24.574219 C 273.113281 24.542969 273.042969 24.496094 273 24.441406 L 271.40625 22.601562 C 271.40625 22.660156 271.414062 22.714844 271.425781 22.773438 C 271.425781 22.828125 271.425781 22.882812 271.425781 22.925781 L 271.425781 24.984375 L 270.199219 24.984375 L 270.199219 21.398438 L 271.417969 21.398438 C 271.460938 21.398438 271.5 21.402344 271.539062 21.410156 C 271.578125 21.417969 271.613281 21.433594 271.640625 21.449219 C 271.671875 21.472656 271.699219 21.496094 271.722656 21.519531 L 273.292969 23.34375 C 273.328125 23.402344 273.382812 23.46875 273.433594 23.535156 Z M 273.433594 23.535156 "/>
</g>
</svg>
