<?xml version="1.0" encoding="UTF-8"?>
<svg xmlns="http://www.w3.org/2000/svg" xmlns:xlink="http://www.w3.org/1999/xlink" width="32px" height="32px" viewBox="0 0 32 31" version="1.1">
<g id="surface1">
<path style=" stroke:none;fill-rule:nonzero;fill:rgb(64.313728%,83.92157%,36.862746%);fill-opacity:1;" d="M 20.589844 5.082031 C 20.589844 3.199219 19.4375 1.5 17.667969 0.777344 C 15.898438 0.0585938 13.863281 0.457031 12.511719 1.792969 L 3.972656 10.191406 C 5.867188 9.625 7.921875 10.132812 9.324219 11.507812 L 12.667969 14.792969 L 19.207031 8.367188 C 20.09375 7.496094 20.59375 6.3125 20.589844 5.082031 Z M 20.589844 5.082031 "/>
<path style=" stroke:none;fill-rule:nonzero;fill:rgb(95.294118%,91.764706%,36.470589%);fill-opacity:1;" d="M 29.523438 18.519531 C 31.371094 16.703125 31.371094 13.757812 29.523438 11.941406 L 20.988281 3.550781 C 21.554688 5.410156 21.042969 7.429688 19.648438 8.800781 L 16.300781 12.09375 L 22.832031 18.519531 C 24.683594 20.328125 27.671875 20.328125 29.523438 18.519531 Z M 29.523438 18.519531 "/>
<path style=" stroke:none;fill-rule:nonzero;fill:rgb(100%,50.196081%,54.509807%);fill-opacity:1;" d="M 2.191406 18.519531 L 10.726562 26.90625 C 10.152344 25.046875 10.667969 23.03125 12.066406 21.65625 L 15.414062 18.363281 L 8.878906 11.941406 C 7.035156 10.125 4.039062 10.125 2.191406 11.941406 C 0.34375 13.757812 0.34375 16.703125 2.191406 18.519531 Z M 2.191406 18.519531 "/>
<path style=" stroke:none;fill-rule:nonzero;fill:rgb(35.686275%,76.078433%,90.588236%);fill-opacity:1;" d="M 11.121094 25.378906 C 11.121094 27.261719 12.273438 28.960938 14.042969 29.679688 C 15.8125 30.398438 17.847656 30 19.203125 28.667969 L 27.757812 20.253906 C 27.246094 20.40625 26.71875 20.484375 26.1875 20.484375 C 24.765625 20.488281 23.402344 19.933594 22.398438 18.945312 L 19.054688 15.65625 L 12.515625 22.085938 C 11.621094 22.953125 11.121094 24.140625 11.121094 25.378906 Z M 11.121094 25.378906 "/>
</g>
</svg>
